<svg class="svg-icon" style="width: 1em; height: 1em;vertical-align: middle;fill: currentColor;overflow: hidden;" viewBox="0 0 1024 1024" version="1.1" xmlns="http://www.w3.org/2000/svg"><path d="M512 0C230.4 0 0 230.4 0 512s230.4 512 512 512 512-230.4 512-512-230.4-512-512-512z m32 960v-140.8c0-19.2-12.8-32-32-32s-32 12.8-32 32V960C256 940.8 83.2 768 64 544h140.8c19.2 0 32-12.8 32-32s-12.8-32-25.6-32H64C83.2 256 256 83.2 480 64v140.8c0 19.2 12.8 32 32 32s32-12.8 32-32V64c224 19.2 396.8 192 416 416h-140.8c-19.2 0-32 12.8-32 32s12.8 32 32 32H960c-19.2 224-192 396.8-416 416z" fill="#14ADC4" /><path d="M512 320C403.2 320 320 403.2 320 512s83.2 192 192 192 192-83.2 192-192-83.2-192-192-192z m0 320c-70.4 0-128-57.6-128-128s57.6-128 128-128 128 57.6 128 128-57.6 128-128 128z" fill="#14ADC4" /></svg>