<svg xmlns="http://www.w3.org/2000/svg" xmlns:xlink="http://www.w3.org/1999/xlink" version="1.1" width="256" height="256" viewBox="0 0 256 256" xml:space="preserve">
<g style="stroke: none; stroke-width: 0; stroke-dasharray: none; stroke-linecap: butt; stroke-linejoin: miter; stroke-miterlimit: 10; fill: none; fill-rule: nonzero; opacity: 1;" transform="translate(1.4065934065934016 1.4065934065934016) scale(2.81 2.81)">
	<path d="M 89.426 53.563 l -19.54 -9.199 V 32.299 c 0 -0.357 -0.19 -0.688 -0.501 -0.866 L 46 17.958 V 8.563 h 6.208 c 0.553 0 1 -0.448 1 -1 s -0.447 -1 -1 -1 H 46 V 1.968 c 0 -0.552 -0.448 -1 -1 -1 s -1 0.448 -1 1 v 4.594 h -6.208 c -0.552 0 -1 0.448 -1 1 s 0.448 1 1 1 H 44 v 9.396 L 20.615 31.433 c -0.31 0.178 -0.501 0.509 -0.501 0.866 v 12.064 l -19.54 9.199 C 0.224 53.727 0 54.079 0 54.467 v 33.565 c 0 0.553 0.448 1 1 1 h 88 c 0.553 0 1 -0.447 1 -1 V 54.467 C 90 54.079 89.776 53.727 89.426 53.563 z M 88 87.032 H 2 V 55.102 l 19.54 -9.199 c 0.351 -0.165 0.574 -0.518 0.574 -0.905 V 32.877 L 45 19.69 l 22.886 13.188 v 12.121 c 0 0.387 0.224 0.74 0.574 0.905 L 88 55.102 V 87.032 z" style="stroke: none; stroke-width: 1; stroke-dasharray: none; stroke-linecap: butt; stroke-linejoin: miter; stroke-miterlimit: 10; fill: rgb(0,0,0); fill-rule: nonzero; opacity: 1;" transform=" matrix(1 0 0 1 0 0) " stroke-linecap="round"/>
	<path d="M 53.179 89.032 H 36.822 c -0.552 0 -1 -0.447 -1 -1 V 67.497 c 0 -5.061 4.117 -9.178 9.178 -9.178 c 5.062 0 9.179 4.117 9.179 9.178 v 20.535 C 54.179 88.585 53.731 89.032 53.179 89.032 z M 37.822 87.032 h 14.357 V 67.497 c 0 -3.958 -3.221 -7.178 -7.179 -7.178 s -7.178 3.22 -7.178 7.178 V 87.032 z" style="stroke: none; stroke-width: 1; stroke-dasharray: none; stroke-linecap: butt; stroke-linejoin: miter; stroke-miterlimit: 10; fill: rgb(0,0,0); fill-rule: nonzero; opacity: 1;" transform=" matrix(1 0 0 1 0 0) " stroke-linecap="round"/>
	<path d="M 76.081 78.255 h -9.582 c -0.553 0 -1 -0.447 -1 -1 V 65.226 c 0 -3.193 2.598 -5.791 5.791 -5.791 s 5.791 2.598 5.791 5.791 v 12.029 C 77.081 77.808 76.634 78.255 76.081 78.255 z M 67.499 76.255 h 7.582 V 65.226 c 0 -2.091 -1.7 -3.791 -3.791 -3.791 s -3.791 1.7 -3.791 3.791 V 76.255 z" style="stroke: none; stroke-width: 1; stroke-dasharray: none; stroke-linecap: butt; stroke-linejoin: miter; stroke-miterlimit: 10; fill: rgb(0,0,0); fill-rule: nonzero; opacity: 1;" transform=" matrix(1 0 0 1 0 0) " stroke-linecap="round"/>
	<path d="M 23.501 78.255 h -9.582 c -0.552 0 -1 -0.447 -1 -1 V 65.226 c 0 -3.193 2.598 -5.791 5.791 -5.791 s 5.791 2.598 5.791 5.791 v 12.029 C 24.501 77.808 24.053 78.255 23.501 78.255 z M 14.919 76.255 h 7.582 V 65.226 c 0 -2.091 -1.701 -3.791 -3.791 -3.791 s -3.791 1.7 -3.791 3.791 V 76.255 z" style="stroke: none; stroke-width: 1; stroke-dasharray: none; stroke-linecap: butt; stroke-linejoin: miter; stroke-miterlimit: 10; fill: rgb(0,0,0); fill-rule: nonzero; opacity: 1;" transform=" matrix(1 0 0 1 0 0) " stroke-linecap="round"/>
	<path d="M 45 42.049 c -3.104 0 -5.629 -2.525 -5.629 -5.629 s 2.525 -5.629 5.629 -5.629 c 3.104 0 5.629 2.525 5.629 5.629 S 48.104 42.049 45 42.049 z M 45 32.791 c -2.001 0 -3.629 1.628 -3.629 3.629 c 0 2.001 1.628 3.629 3.629 3.629 s 3.629 -1.628 3.629 -3.629 C 48.629 34.418 47.001 32.791 45 32.791 z" style="stroke: none; stroke-width: 1; stroke-dasharray: none; stroke-linecap: butt; stroke-linejoin: miter; stroke-miterlimit: 10; fill: rgb(0,0,0); fill-rule: nonzero; opacity: 1;" transform=" matrix(1 0 0 1 0 0) " stroke-linecap="round"/>
</g>
</svg>