<svg xmlns="http://www.w3.org/2000/svg" xmlns:xlink="http://www.w3.org/1999/xlink" version="1.1" width="256" height="256" viewBox="0 0 256 256" xml:space="preserve">
<g style="stroke: none; stroke-width: 0; stroke-dasharray: none; stroke-linecap: butt; stroke-linejoin: miter; stroke-miterlimit: 10; fill: none; fill-rule: nonzero; opacity: 1;" transform="translate(1.4065934065934016 1.4065934065934016) scale(2.81 2.81)">
	<path d="M 88.852 52.442 l -18.509 -8.713 V 32.588 c 0 -0.715 -0.382 -1.376 -1.001 -1.733 L 47 17.981 v -7.568 h 5.044 c 1.104 0 2 -0.896 2 -2 s -0.896 -2 -2 -2 H 47 V 2.946 c 0 -1.104 -0.896 -2 -2 -2 s -2 0.896 -2 2 v 3.467 h -5.044 c -1.104 0 -2 0.896 -2 2 s 0.896 2 2 2 H 43 v 7.568 L 20.658 30.855 c -0.62 0.357 -1.001 1.018 -1.001 1.733 v 11.142 L 1.148 52.442 C 0.447 52.772 0 53.478 0 54.252 v 32.802 c 0 1.104 0.896 2 2 2 h 35.008 h 15.984 H 88 c 1.104 0 2 -0.896 2 -2 V 54.252 C 90 53.478 89.553 52.772 88.852 52.442 z M 39.008 85.054 V 66.986 c 0 -3.305 2.688 -5.993 5.992 -5.993 c 3.304 0 5.992 2.688 5.992 5.993 v 18.067 H 39.008 z M 86 85.054 H 54.992 V 66.986 c 0 -5.51 -4.482 -9.993 -9.992 -9.993 s -9.992 4.483 -9.992 9.993 v 18.067 H 4 V 55.521 l 18.509 -8.713 c 0.701 -0.329 1.148 -1.035 1.148 -1.809 V 33.744 L 45 21.445 l 21.343 12.299 v 11.255 c 0 0.774 0.447 1.48 1.148 1.809 L 86 55.521 V 85.054 z" style="stroke: none; stroke-width: 1; stroke-dasharray: none; stroke-linecap: butt; stroke-linejoin: miter; stroke-miterlimit: 10; fill: rgb(0,0,0); fill-rule: nonzero; opacity: 1;" transform=" matrix(1 0 0 1 0 0) " stroke-linecap="round"/>
	<path d="M 75.375 78.522 h -9.364 c -1.104 0 -2 -0.896 -2 -2 V 64.766 c 0 -3.685 2.997 -6.682 6.682 -6.682 s 6.683 2.997 6.683 6.682 v 11.757 C 77.375 77.627 76.479 78.522 75.375 78.522 z M 68.011 74.522 h 5.364 v -9.757 c 0 -1.479 -1.203 -2.682 -2.683 -2.682 c -1.479 0 -2.682 1.203 -2.682 2.682 V 74.522 z" style="stroke: none; stroke-width: 1; stroke-dasharray: none; stroke-linecap: butt; stroke-linejoin: miter; stroke-miterlimit: 10; fill: rgb(0,0,0); fill-rule: nonzero; opacity: 1;" transform=" matrix(1 0 0 1 0 0) " stroke-linecap="round"/>
	<path d="M 23.99 78.522 h -9.365 c -1.104 0 -2 -0.896 -2 -2 V 64.766 c 0 -3.685 2.998 -6.682 6.683 -6.682 s 6.682 2.997 6.682 6.682 v 11.757 C 25.99 77.627 25.094 78.522 23.99 78.522 z M 16.625 74.522 h 5.365 v -9.757 c 0 -1.479 -1.203 -2.682 -2.682 -2.682 s -2.683 1.203 -2.683 2.682 V 74.522 z" style="stroke: none; stroke-width: 1; stroke-dasharray: none; stroke-linecap: butt; stroke-linejoin: miter; stroke-miterlimit: 10; fill: rgb(0,0,0); fill-rule: nonzero; opacity: 1;" transform=" matrix(1 0 0 1 0 0) " stroke-linecap="round"/>
	<path d="M 45 43.139 c -3.597 0 -6.524 -2.927 -6.524 -6.524 s 2.927 -6.524 6.524 -6.524 c 3.597 0 6.523 2.927 6.523 6.524 S 48.597 43.139 45 43.139 z M 45 34.091 c -1.392 0 -2.524 1.132 -2.524 2.524 s 1.132 2.524 2.524 2.524 s 2.523 -1.132 2.523 -2.524 S 46.392 34.091 45 34.091 z" style="stroke: none; stroke-width: 1; stroke-dasharray: none; stroke-linecap: butt; stroke-linejoin: miter; stroke-miterlimit: 10; fill: rgb(0,0,0); fill-rule: nonzero; opacity: 1;" transform=" matrix(1 0 0 1 0 0) " stroke-linecap="round"/>
</g>
</svg>