<svg xmlns="http://www.w3.org/2000/svg" xmlns:xlink="http://www.w3.org/1999/xlink" version="1.1" width="256" height="256" viewBox="0 0 256 256" xml:space="preserve">
<g style="stroke: none; stroke-width: 0; stroke-dasharray: none; stroke-linecap: butt; stroke-linejoin: miter; stroke-miterlimit: 10; fill: none; fill-rule: nonzero; opacity: 1;" transform="translate(1.4065934065934016 1.4065934065934016) scale(2.81 2.81)">
	<circle cx="21.671" cy="53.271" r="13.731" style="stroke: none; stroke-width: 1; stroke-dasharray: none; stroke-linecap: butt; stroke-linejoin: miter; stroke-miterlimit: 10; fill: rgb(188,234,115); fill-rule: nonzero; opacity: 1;" transform="  matrix(1 0 0 1 0 0) "/>
	<path d="M 21.668 68.501 c -8.398 0 -15.23 -6.832 -15.23 -15.23 c 0 -8.398 6.833 -15.23 15.23 -15.23 s 15.23 6.833 15.23 15.23 C 36.898 61.669 30.066 68.501 21.668 68.501 z M 21.668 41.04 c -6.744 0 -12.23 5.486 -12.23 12.23 s 5.486 12.23 12.23 12.23 s 12.23 -5.486 12.23 -12.23 S 28.412 41.04 21.668 41.04 z" style="stroke: none; stroke-width: 1; stroke-dasharray: none; stroke-linecap: butt; stroke-linejoin: miter; stroke-miterlimit: 10; fill: rgb(188,234,115); fill-rule: nonzero; opacity: 1;" transform=" matrix(1 0 0 1 0 0) " stroke-linecap="round"/>
	<path d="M 21.668 90 c -0.829 0 -1.5 -0.672 -1.5 -1.5 V 51.313 c 0 -0.828 0.671 -1.5 1.5 -1.5 s 1.5 0.672 1.5 1.5 V 88.5 C 23.168 89.328 22.497 90 21.668 90 z" style="stroke: none; stroke-width: 1; stroke-dasharray: none; stroke-linecap: butt; stroke-linejoin: miter; stroke-miterlimit: 10; fill: rgb(163,204,98); fill-rule: nonzero; opacity: 1;" transform=" matrix(1 0 0 1 0 0) " stroke-linecap="round"/>
	<path d="M 21.668 62.041 c -0.384 0 -0.768 -0.146 -1.061 -0.439 c -0.586 -0.586 -0.586 -1.535 0 -2.121 l 2.625 -2.625 c 0.586 -0.586 1.535 -0.586 2.121 0 s 0.586 1.535 0 2.121 l -2.625 2.625 C 22.436 61.895 22.052 62.041 21.668 62.041 z" style="stroke: none; stroke-width: 1; stroke-dasharray: none; stroke-linecap: butt; stroke-linejoin: miter; stroke-miterlimit: 10; fill: rgb(163,204,98); fill-rule: nonzero; opacity: 1;" transform=" matrix(1 0 0 1 0 0) " stroke-linecap="round"/>
	<path d="M 21.668 59.033 c -0.384 0 -0.768 -0.146 -1.061 -0.439 l -2.625 -2.625 c -0.586 -0.586 -0.586 -1.535 0 -2.121 s 1.535 -0.586 2.121 0 l 2.625 2.625 c 0.586 0.586 0.586 1.535 0 2.121 C 22.436 58.887 22.052 59.033 21.668 59.033 z" style="stroke: none; stroke-width: 1; stroke-dasharray: none; stroke-linecap: butt; stroke-linejoin: miter; stroke-miterlimit: 10; fill: rgb(163,204,98); fill-rule: nonzero; opacity: 1;" transform=" matrix(1 0 0 1 0 0) " stroke-linecap="round"/>
	<circle cx="42.859" cy="25.899" r="24.399" style="stroke: none; stroke-width: 1; stroke-dasharray: none; stroke-linecap: butt; stroke-linejoin: miter; stroke-miterlimit: 10; fill: rgb(28,165,111); fill-rule: nonzero; opacity: 1;" transform="  matrix(1 0 0 1 0 0) "/>
	<path d="M 42.861 51.798 c -14.28 0 -25.898 -11.618 -25.898 -25.899 S 28.581 0 42.861 0 S 68.76 11.618 68.76 25.899 S 57.142 51.798 42.861 51.798 z M 42.861 3 C 30.235 3 19.963 13.272 19.963 25.899 s 10.272 22.899 22.898 22.899 c 12.626 0 22.898 -10.272 22.898 -22.899 S 55.487 3 42.861 3 z" style="stroke: none; stroke-width: 1; stroke-dasharray: none; stroke-linecap: butt; stroke-linejoin: miter; stroke-miterlimit: 10; fill: rgb(28,165,111); fill-rule: nonzero; opacity: 1;" transform=" matrix(1 0 0 1 0 0) " stroke-linecap="round"/>
	<path d="M 42.861 90 c -0.829 0 -1.5 -0.672 -1.5 -1.5 V 22.419 c 0 -0.829 0.671 -1.5 1.5 -1.5 s 1.5 0.671 1.5 1.5 V 88.5 C 44.361 89.328 43.69 90 42.861 90 z" style="stroke: none; stroke-width: 1; stroke-dasharray: none; stroke-linecap: butt; stroke-linejoin: miter; stroke-miterlimit: 10; fill: rgb(23,139,93); fill-rule: nonzero; opacity: 1;" transform=" matrix(1 0 0 1 0 0) " stroke-linecap="round"/>
	<path d="M 42.861 40.318 c -0.384 0 -0.768 -0.146 -1.061 -0.439 c -0.586 -0.585 -0.586 -1.535 0 -2.121 l 4.664 -4.665 c 0.586 -0.586 1.535 -0.586 2.121 0 c 0.586 0.585 0.586 1.535 0 2.121 l -4.664 4.665 C 43.629 40.171 43.245 40.318 42.861 40.318 z" style="stroke: none; stroke-width: 1; stroke-dasharray: none; stroke-linecap: butt; stroke-linejoin: miter; stroke-miterlimit: 10; fill: rgb(23,139,93); fill-rule: nonzero; opacity: 1;" transform=" matrix(1 0 0 1 0 0) " stroke-linecap="round"/>
	<path d="M 42.861 34.973 c -0.384 0 -0.768 -0.146 -1.061 -0.439 l -4.665 -4.664 c -0.586 -0.585 -0.586 -1.535 0 -2.121 c 0.585 -0.586 1.535 -0.586 2.121 0 l 4.665 4.664 c 0.586 0.585 0.586 1.535 0 2.121 C 43.629 34.826 43.245 34.973 42.861 34.973 z" style="stroke: none; stroke-width: 1; stroke-dasharray: none; stroke-linecap: butt; stroke-linejoin: miter; stroke-miterlimit: 10; fill: rgb(23,139,93); fill-rule: nonzero; opacity: 1;" transform=" matrix(1 0 0 1 0 0) " stroke-linecap="round"/>
	<ellipse cx="67.151" cy="46.004999999999995" rx="14.911" ry="20.105" style="stroke: none; stroke-width: 1; stroke-dasharray: none; stroke-linecap: butt; stroke-linejoin: miter; stroke-miterlimit: 10; fill: rgb(153,213,59); fill-rule: nonzero; opacity: 1;" transform=" matrix(1 0 0 1 0 0) "/>
	<path d="M 67.152 67.608 c -9.049 0 -16.411 -9.691 -16.411 -21.604 s 7.362 -21.605 16.411 -21.605 s 16.41 9.692 16.41 21.605 S 76.201 67.608 67.152 67.608 z M 67.152 27.399 c -7.395 0 -13.411 8.346 -13.411 18.605 s 6.017 18.604 13.411 18.604 s 13.41 -8.346 13.41 -18.604 S 74.547 27.399 67.152 27.399 z" style="stroke: none; stroke-width: 1; stroke-dasharray: none; stroke-linecap: butt; stroke-linejoin: miter; stroke-miterlimit: 10; fill: rgb(153,213,59); fill-rule: nonzero; opacity: 1;" transform=" matrix(1 0 0 1 0 0) " stroke-linecap="round"/>
	<path d="M 67.152 90 c -0.828 0 -1.5 -0.672 -1.5 -1.5 V 47.426 c 0 -0.828 0.672 -1.5 1.5 -1.5 s 1.5 0.672 1.5 1.5 V 88.5 C 68.652 89.328 67.98 90 67.152 90 z" style="stroke: none; stroke-width: 1; stroke-dasharray: none; stroke-linecap: butt; stroke-linejoin: miter; stroke-miterlimit: 10; fill: rgb(133,186,50); fill-rule: nonzero; opacity: 1;" transform=" matrix(1 0 0 1 0 0) " stroke-linecap="round"/>
	<path d="M 67.152 62.438 c -0.384 0 -0.768 -0.146 -1.061 -0.439 c -0.586 -0.586 -0.586 -1.535 0 -2.121 l 3.844 -3.844 c 0.586 -0.586 1.535 -0.586 2.121 0 s 0.586 1.535 0 2.121 l -3.844 3.844 C 67.92 62.292 67.536 62.438 67.152 62.438 z" style="stroke: none; stroke-width: 1; stroke-dasharray: none; stroke-linecap: butt; stroke-linejoin: miter; stroke-miterlimit: 10; fill: rgb(133,186,50); fill-rule: nonzero; opacity: 1;" transform=" matrix(1 0 0 1 0 0) " stroke-linecap="round"/>
	<path d="M 67.152 58.034 c -0.384 0 -0.768 -0.146 -1.061 -0.439 l -3.844 -3.844 c -0.586 -0.586 -0.586 -1.535 0 -2.121 s 1.535 -0.586 2.121 0 l 3.844 3.844 c 0.586 0.586 0.586 1.535 0 2.121 C 67.92 57.888 67.536 58.034 67.152 58.034 z" style="stroke: none; stroke-width: 1; stroke-dasharray: none; stroke-linecap: butt; stroke-linejoin: miter; stroke-miterlimit: 10; fill: rgb(133,186,50); fill-rule: nonzero; opacity: 1;" transform=" matrix(1 0 0 1 0 0) " stroke-linecap="round"/>
	<path d="M 81.963 88.5 c -0.451 -3.075 -3.091 -5.437 -6.291 -5.437 c -0.117 0 -0.232 0.011 -0.348 0.018 c -0.654 -2.821 -3.177 -4.926 -6.196 -4.926 c -0.981 0 -1.906 0.228 -2.736 0.625 c -1.115 -1.843 -3.133 -3.079 -5.444 -3.079 c -3.303 0 -6.018 2.516 -6.334 5.737 c -0.07 -0.002 -0.139 -0.011 -0.21 -0.011 c -3.516 0 -6.366 2.85 -6.366 6.366 c 0 0.239 0.016 0.475 0.041 0.707 H 81.963 z" style="stroke: none; stroke-width: 1; stroke-dasharray: none; stroke-linecap: butt; stroke-linejoin: miter; stroke-miterlimit: 10; fill: rgb(28,165,111); fill-rule: nonzero; opacity: 1;" transform=" matrix(1 0 0 1 0 0) " stroke-linecap="round"/>
	<path d="M 81.963 90 H 48.079 c -0.763 0 -1.404 -0.573 -1.49 -1.331 c -0.033 -0.288 -0.052 -0.579 -0.052 -0.876 c 0 -3.982 2.975 -7.283 6.819 -7.797 c 0.91 -3.381 3.973 -5.796 7.591 -5.796 c 2.344 0 4.504 1.017 5.986 2.77 c 0.712 -0.21 1.446 -0.315 2.194 -0.315 c 3.273 0 6.127 1.982 7.302 4.945 c 3.541 0.348 6.492 3.104 7.018 6.683 c 0.063 0.432 -0.064 0.868 -0.35 1.198 C 82.813 89.811 82.398 90 81.963 90 z M 49.602 87 h 30.276 c -0.851 -1.463 -2.439 -2.438 -4.206 -2.438 L 75.4 84.578 c -0.725 0.021 -1.373 -0.452 -1.537 -1.159 c -0.515 -2.217 -2.462 -3.765 -4.735 -3.765 c -0.722 0 -1.425 0.161 -2.09 0.479 c -0.698 0.334 -1.53 0.082 -1.93 -0.577 c -0.893 -1.475 -2.448 -2.355 -4.161 -2.355 c -2.515 0 -4.596 1.885 -4.841 4.384 c -0.078 0.792 -0.77 1.388 -1.556 1.353 c -0.015 -0.001 -0.114 -0.01 -0.126 -0.008 C 51.99 82.929 49.981 84.693 49.602 87 z" style="stroke: none; stroke-width: 1; stroke-dasharray: none; stroke-linecap: butt; stroke-linejoin: miter; stroke-miterlimit: 10; fill: rgb(28,165,111); fill-rule: nonzero; opacity: 1;" transform=" matrix(1 0 0 1 0 0) " stroke-linecap="round"/>
	<path d="M 8.037 88.5 c 0.367 -2.507 2.52 -4.433 5.129 -4.433 c 0.096 0 0.189 0.009 0.284 0.014 c 0.533 -2.3 2.59 -4.016 5.052 -4.016 c 0.8 0 1.554 0.186 2.231 0.509 c 0.909 -1.502 2.554 -2.51 4.439 -2.51 c 2.693 0 4.907 2.052 5.165 4.677 c 0.057 -0.002 0.113 -0.009 0.171 -0.009 c 2.867 0 5.19 2.324 5.19 5.19 c 0 0.195 -0.013 0.387 -0.034 0.577 H 8.037 z" style="stroke: none; stroke-width: 1; stroke-dasharray: none; stroke-linecap: butt; stroke-linejoin: miter; stroke-miterlimit: 10; fill: rgb(28,165,111); fill-rule: nonzero; opacity: 1;" transform=" matrix(1 0 0 1 0 0) " stroke-linecap="round"/>
	<path d="M 35.664 90 H 8.038 c -0.436 0 -0.85 -0.189 -1.135 -0.52 c -0.285 -0.329 -0.413 -0.767 -0.35 -1.198 c 0.438 -2.987 2.864 -5.302 5.802 -5.666 c 1.035 -2.434 3.42 -4.051 6.147 -4.051 c 0.577 0 1.144 0.073 1.695 0.22 c 1.256 -1.408 3.042 -2.221 4.975 -2.221 c 3.015 0 5.576 1.971 6.407 4.754 c 3.182 0.515 5.619 3.28 5.619 6.604 c 0 0.251 -0.016 0.499 -0.043 0.742 C 37.07 89.425 36.428 90 35.664 90 z M 10.261 87 h 23.819 c -0.411 -1.59 -1.857 -2.768 -3.574 -2.768 l -0.12 0.008 c -0.779 0.06 -1.466 -0.564 -1.543 -1.353 c -0.186 -1.895 -1.765 -3.323 -3.672 -3.323 c -1.298 0 -2.478 0.668 -3.155 1.786 c -0.399 0.66 -1.233 0.91 -1.93 0.577 c -0.503 -0.24 -1.037 -0.362 -1.584 -0.362 c -1.725 0 -3.201 1.174 -3.59 2.854 c -0.164 0.709 -0.825 1.194 -1.539 1.159 c -0.013 0 -0.118 -0.007 -0.131 -0.008 C 12.026 85.571 10.948 86.128 10.261 87 z" style="stroke: none; stroke-width: 1; stroke-dasharray: none; stroke-linecap: butt; stroke-linejoin: miter; stroke-miterlimit: 10; fill: rgb(28,165,111); fill-rule: nonzero; opacity: 1;" transform=" matrix(1 0 0 1 0 0) " stroke-linecap="round"/>
	<path d="M 88.441 90 H 1.558 c -0.829 0 -1.5 -0.672 -1.5 -1.5 s 0.671 -1.5 1.5 -1.5 h 86.883 c 0.828 0 1.5 0.672 1.5 1.5 S 89.27 90 88.441 90 z" style="stroke: none; stroke-width: 1; stroke-dasharray: none; stroke-linecap: butt; stroke-linejoin: miter; stroke-miterlimit: 10; fill: rgb(153,213,59); fill-rule: nonzero; opacity: 1;" transform=" matrix(1 0 0 1 0 0) " stroke-linecap="round"/>
</g>
</svg>