<svg xmlns="http://www.w3.org/2000/svg" xmlns:xlink="http://www.w3.org/1999/xlink" version="1.1" width="256" height="256" viewBox="0 0 256 256" xml:space="preserve">
<g style="stroke: none; stroke-width: 0; stroke-dasharray: none; stroke-linecap: butt; stroke-linejoin: miter; stroke-miterlimit: 10; fill: none; fill-rule: nonzero; opacity: 1;" transform="translate(1.4065934065934016 1.4065934065934016) scale(2.81 2.81)">
	<radialGradient id="SVGID_2" gradientUnits="userSpaceOnUse" cx="45" cy="30.9616" r="35.6622" fx="45" fy="30.9616">
<stop offset="0%" style="stop-color:rgb(244,230,177);stop-opacity: 1"/>
<stop offset="100%" style="stop-color:rgb(213,178,98);stop-opacity: 1"/>
</radialGradient>
<path d="M 51.58 24.637 c 0.468 -7.269 1.17 -14.59 2.106 -21.964 h -8.067 h -1.239 h -8.067 c 0.934 7.352 1.635 14.652 2.103 21.901 c -6.912 -0.342 -13.902 -1.223 -20.965 -2.619 v 8.067 v 1.239 v 8.067 c 7.234 -1.43 14.39 -2.317 21.465 -2.64 c 0.579 17.202 -0.233 34.094 -2.602 50.638 h 8.067 h 1.239 h 8.067 c -2.373 -16.564 -3.184 -33.476 -2.601 -50.698 c 7.248 0.249 14.405 1.127 21.463 2.701 v -8.067 v -1.239 v -8.067 C 65.652 23.493 58.659 24.365 51.58 24.637 z" style="stroke: none; stroke-width: 1; stroke-dasharray: none; stroke-linecap: butt; stroke-linejoin: miter; stroke-miterlimit: 10; fill: url(#SVGID_2); fill-rule: nonzero; opacity: 1;" transform=" matrix(1 0 0 1 0 0) " stroke-linecap="round"/>
	<radialGradient id="SVGID_3" gradientUnits="userSpaceOnUse" cx="45.2003" cy="29.9802" r="38.3303" fx="45.2003" fy="29.9802">
<stop offset="0%" style="stop-color:rgb(233,208,134);stop-opacity: 1"/>
<stop offset="100%" style="stop-color:rgb(197,151,49);stop-opacity: 1"/>
</radialGradient>
<path d="M 52.687 3.673 c -0.936 7.374 -1.639 14.695 -2.106 21.964 c 7.079 -0.272 14.071 -1.145 20.969 -2.682 v 7.067 v 1.239 v 7.067 c -7.058 -1.574 -14.216 -2.451 -21.463 -2.701 c -0.583 17.223 0.228 34.135 2.601 50.698 h -7.067 h -1.239 h -7.067 c 2.37 -16.544 3.182 -33.436 2.602 -50.638 c -7.075 0.323 -14.231 1.21 -21.465 2.64 v -7.067 v -1.239 v -7.067 c 7.063 1.396 14.053 2.277 20.965 2.619 c -0.468 -7.248 -1.169 -14.549 -2.103 -21.901 h 7.067 h 1.239 H 52.687 M 56.856 0 h -4.169 h -7.067 h -1.239 h -7.067 h -4.169 l 0.525 4.136 c 0.741 5.84 1.34 11.708 1.785 17.498 c -5.344 -0.434 -10.806 -1.199 -16.292 -2.283 l -4.386 -0.867 v 4.471 v 7.067 v 1.239 v 7.067 v 4.471 l 4.386 -0.867 c 5.785 -1.143 11.549 -1.931 17.185 -2.35 c 0.342 15.912 -0.554 31.444 -2.671 46.223 L 33.076 90 h 4.237 h 7.067 h 1.239 h 7.067 h 4.237 l -0.601 -4.194 c -2.121 -14.811 -3.018 -30.376 -2.67 -46.321 c 5.838 0.384 11.573 1.198 17.096 2.43 l 4.473 0.997 v -4.583 v -7.067 v -1.239 v -7.067 v -4.583 L 70.75 19.37 c -5.242 1.169 -10.679 1.962 -16.212 2.368 c 0.446 -5.826 1.047 -11.729 1.793 -17.602 L 56.856 0 L 56.856 0 z M 52.687 7.347 h 0.005 H 52.687 L 52.687 7.347 z" style="stroke: none; stroke-width: 1; stroke-dasharray: none; stroke-linecap: butt; stroke-linejoin: miter; stroke-miterlimit: 10; fill: url(#SVGID_3); fill-rule: nonzero; opacity: 1;" transform=" matrix(1 0 0 1 0 0) " stroke-linecap="round"/>
</g>
</svg>