<svg xmlns="http://www.w3.org/2000/svg" xmlns:xlink="http://www.w3.org/1999/xlink" version="1.1" width="256" height="256" viewBox="0 0 256 256" xml:space="preserve">
<g style="stroke: none; stroke-width: 0; stroke-dasharray: none; stroke-linecap: butt; stroke-linejoin: miter; stroke-miterlimit: 10; fill: none; fill-rule: nonzero; opacity: 1;" transform="translate(1.4065934065934016 1.4065934065934016) scale(2.81 2.81)">
	<rect x="9.04" y="28.4" rx="0" ry="0" width="71.92" height="61.6" style="stroke: none; stroke-width: 1; stroke-dasharray: none; stroke-linecap: butt; stroke-linejoin: miter; stroke-miterlimit: 10; fill: rgb(247,89,89); fill-rule: nonzero; opacity: 1;" transform=" matrix(1 0 0 1 0 0) "/>
	<path d="M 77.015 0 H 12.985 C 10.806 0 9.04 1.766 9.04 3.944 v 19.451 h 71.92 V 3.944 C 80.96 1.766 79.194 0 77.015 0 z" style="stroke: none; stroke-width: 1; stroke-dasharray: none; stroke-linecap: butt; stroke-linejoin: miter; stroke-miterlimit: 10; fill: rgb(247,89,89); fill-rule: nonzero; opacity: 1;" transform=" matrix(1 0 0 1 0 0) " stroke-linecap="round"/>
	<path d="M 52.105 88 h -14.21 V 62.499 c 0 -0.982 0.796 -1.779 1.779 -1.779 h 10.652 c 0.982 0 1.779 0.796 1.779 1.779 V 88 z" style="stroke: none; stroke-width: 1; stroke-dasharray: none; stroke-linecap: butt; stroke-linejoin: miter; stroke-miterlimit: 10; fill: rgb(249,249,249); fill-rule: nonzero; opacity: 1;" transform=" matrix(1 0 0 1 0 0) " stroke-linecap="round"/>
	<path d="M 51.098 39.07 H 38.902 c -0.556 0 -1.007 0.451 -1.007 1.007 v 12.196 c 0 0.556 0.451 1.007 1.007 1.007 h 12.196 c 0.556 0 1.007 -0.451 1.007 -1.007 V 40.077 C 52.105 39.521 51.654 39.07 51.098 39.07 z" style="stroke: none; stroke-width: 1; stroke-dasharray: none; stroke-linecap: butt; stroke-linejoin: miter; stroke-miterlimit: 10; fill: rgb(249,249,249); fill-rule: nonzero; opacity: 1;" transform=" matrix(1 0 0 1 0 0) " stroke-linecap="round"/>
	<path d="M 72.599 39.07 H 60.404 c -0.556 0 -1.007 0.451 -1.007 1.007 v 12.196 c 0 0.556 0.451 1.007 1.007 1.007 h 12.196 c 0.556 0 1.007 -0.451 1.007 -1.007 V 40.077 C 73.607 39.521 73.156 39.07 72.599 39.07 z" style="stroke: none; stroke-width: 1; stroke-dasharray: none; stroke-linecap: butt; stroke-linejoin: miter; stroke-miterlimit: 10; fill: rgb(249,249,249); fill-rule: nonzero; opacity: 1;" transform=" matrix(1 0 0 1 0 0) " stroke-linecap="round"/>
	<path d="M 29.596 39.07 H 17.401 c -0.556 0 -1.007 0.451 -1.007 1.007 v 12.196 c 0 0.556 0.451 1.007 1.007 1.007 h 12.196 c 0.556 0 1.007 -0.451 1.007 -1.007 V 40.077 C 30.603 39.521 30.152 39.07 29.596 39.07 z" style="stroke: none; stroke-width: 1; stroke-dasharray: none; stroke-linecap: butt; stroke-linejoin: miter; stroke-miterlimit: 10; fill: rgb(249,249,249); fill-rule: nonzero; opacity: 1;" transform=" matrix(1 0 0 1 0 0) " stroke-linecap="round"/>
	<path d="M 72.599 60.72 H 60.404 c -0.556 0 -1.007 0.451 -1.007 1.007 v 12.196 c 0 0.556 0.451 1.007 1.007 1.007 h 12.196 c 0.556 0 1.007 -0.451 1.007 -1.007 V 61.727 C 73.607 61.171 73.156 60.72 72.599 60.72 z" style="stroke: none; stroke-width: 1; stroke-dasharray: none; stroke-linecap: butt; stroke-linejoin: miter; stroke-miterlimit: 10; fill: rgb(249,249,249); fill-rule: nonzero; opacity: 1;" transform=" matrix(1 0 0 1 0 0) " stroke-linecap="round"/>
	<path d="M 29.596 60.72 H 17.401 c -0.556 0 -1.007 0.451 -1.007 1.007 v 12.196 c 0 0.556 0.451 1.007 1.007 1.007 h 12.196 c 0.556 0 1.007 -0.451 1.007 -1.007 V 61.727 C 30.603 61.171 30.152 60.72 29.596 60.72 z" style="stroke: none; stroke-width: 1; stroke-dasharray: none; stroke-linecap: butt; stroke-linejoin: miter; stroke-miterlimit: 10; fill: rgb(249,249,249); fill-rule: nonzero; opacity: 1;" transform=" matrix(1 0 0 1 0 0) " stroke-linecap="round"/>
	<path d="M 88.225 21.595 H 1.775 C 0.795 21.595 0 22.39 0 23.371 v 5.607 c 0 0.981 0.795 1.775 1.775 1.775 h 86.449 c 0.981 0 1.775 -0.795 1.775 -1.775 v -5.607 C 90 22.39 89.205 21.595 88.225 21.595 z" style="stroke: none; stroke-width: 1; stroke-dasharray: none; stroke-linecap: butt; stroke-linejoin: miter; stroke-miterlimit: 10; fill: rgb(223,80,80); fill-rule: nonzero; opacity: 1;" transform=" matrix(1 0 0 1 0 0) " stroke-linecap="round"/>
	<path d="M 25.369 4.138 c -0.552 0 -1 0.448 -1 1 v 4.684 h -4.281 V 5.138 c 0 -0.552 -0.448 -1 -1 -1 s -1 0.448 -1 1 v 11.368 c 0 0.552 0.448 1 1 1 s 1 -0.448 1 -1 v -4.684 h 4.281 v 4.684 c 0 0.552 0.448 1 1 1 s 1 -0.448 1 -1 V 5.138 C 26.369 4.585 25.921 4.138 25.369 4.138 z" style="stroke: none; stroke-width: 1; stroke-dasharray: none; stroke-linecap: butt; stroke-linejoin: miter; stroke-miterlimit: 10; fill: rgb(255,222,85); fill-rule: nonzero; opacity: 1;" transform=" matrix(1 0 0 1 0 0) " stroke-linecap="round"/>
	<path d="M 34.161 17.506 H 33.43 c -2.082 0 -3.775 -1.693 -3.775 -3.775 V 7.913 c 0 -2.082 1.693 -3.775 3.775 -3.775 h 0.731 c 2.082 0 3.775 1.693 3.775 3.775 v 5.818 C 37.936 15.813 36.242 17.506 34.161 17.506 z M 33.43 6.138 c -0.979 0 -1.775 0.796 -1.775 1.775 v 5.818 c 0 0.979 0.796 1.775 1.775 1.775 h 0.731 c 0.979 0 1.775 -0.796 1.775 -1.775 V 7.913 c 0 -0.979 -0.796 -1.775 -1.775 -1.775 H 33.43 z" style="stroke: none; stroke-width: 1; stroke-dasharray: none; stroke-linecap: butt; stroke-linejoin: miter; stroke-miterlimit: 10; fill: rgb(255,222,85); fill-rule: nonzero; opacity: 1;" transform=" matrix(1 0 0 1 0 0) " stroke-linecap="round"/>
	<path d="M 47.294 4.138 h -6.281 c -0.552 0 -1 0.448 -1 1 s 0.448 1 1 1 h 2.14 v 10.368 c 0 0.552 0.448 1 1 1 s 1 -0.448 1 -1 V 6.138 h 2.141 c 0.553 0 1 -0.448 1 -1 S 47.847 4.138 47.294 4.138 z" style="stroke: none; stroke-width: 1; stroke-dasharray: none; stroke-linecap: butt; stroke-linejoin: miter; stroke-miterlimit: 10; fill: rgb(255,222,85); fill-rule: nonzero; opacity: 1;" transform=" matrix(1 0 0 1 0 0) " stroke-linecap="round"/>
	<path d="M 58.475 11.822 c 0.553 0 1 -0.448 1 -1 s -0.447 -1 -1 -1 h -5.28 V 6.138 h 5.28 c 0.553 0 1 -0.448 1 -1 s -0.447 -1 -1 -1 h -6.28 c -0.553 0 -1 0.448 -1 1 v 11.368 c 0 0.552 0.447 1 1 1 h 6.28 c 0.553 0 1 -0.448 1 -1 s -0.447 -1 -1 -1 h -5.28 v -3.684 H 58.475 z" style="stroke: none; stroke-width: 1; stroke-dasharray: none; stroke-linecap: butt; stroke-linejoin: miter; stroke-miterlimit: 10; fill: rgb(255,222,85); fill-rule: nonzero; opacity: 1;" transform=" matrix(1 0 0 1 0 0) " stroke-linecap="round"/>
	<path d="M 70.911 15.506 h -5.28 V 5.138 c 0 -0.552 -0.447 -1 -1 -1 s -1 0.448 -1 1 v 11.368 c 0 0.552 0.447 1 1 1 h 6.28 c 0.553 0 1 -0.448 1 -1 S 71.464 15.506 70.911 15.506 z" style="stroke: none; stroke-width: 1; stroke-dasharray: none; stroke-linecap: butt; stroke-linejoin: miter; stroke-miterlimit: 10; fill: rgb(255,222,85); fill-rule: nonzero; opacity: 1;" transform=" matrix(1 0 0 1 0 0) " stroke-linecap="round"/>
</g>
</svg>