<?xml version="1.0" encoding="UTF-8" standalone="no"?>
<!DOCTYPE svg PUBLIC "-//W3C//DTD SVG 1.1//EN" "http://www.w3.org/Graphics/SVG/1.1/DTD/svg11.dtd">
<svg width="100%" height="100%" viewBox="0 0 256 256" version="1.1" xmlns="http://www.w3.org/2000/svg" xmlns:xlink="http://www.w3.org/1999/xlink" xml:space="preserve" xmlns:serif="http://www.serif.com/" style="fill-rule:evenodd;clip-rule:evenodd;stroke-linejoin:round;stroke-miterlimit:2;">
    <g transform="matrix(1.539276,0,0,1.539276,58.58409,1.406593)">
        <ellipse cx="44.996" cy="83.309" rx="30.076" ry="6.689" style="fill:rgb(4,219,120);"/>
        <path d="M45,83.293C43.69,83.293 42.478,82.601 41.812,81.474L37.754,74.61C29.421,60.524 21.551,47.218 18.863,41.822C16.909,37.814 15.925,33.535 15.925,29.075C15.925,13.043 28.968,0 45,0C61.032,0 74.075,13.043 74.075,29.075C74.075,33.531 73.092,37.81 71.153,41.792C71.13,41.84 71.104,41.888 71.079,41.935C68.339,47.403 60.519,60.623 52.243,74.613L48.188,81.474C47.522,82.601 46.31,83.293 45,83.293Z" style="fill:rgb(4,136,219);fill-rule:nonzero;"/>
        <path d="M45,42.274C37.157,42.274 30.777,35.894 30.777,28.051C30.777,20.208 37.157,13.828 45,13.828C52.842,13.828 59.223,20.209 59.223,28.051C59.223,35.893 52.842,42.274 45,42.274Z" style="fill:white;fill-rule:nonzero;"/>
    </g>
</svg>
