<svg xmlns="http://www.w3.org/2000/svg" xmlns:xlink="http://www.w3.org/1999/xlink" version="1.1" width="256" height="256" viewBox="0 0 256 256" xml:space="preserve">
<g style="stroke: none; stroke-width: 0; stroke-dasharray: none; stroke-linecap: butt; stroke-linejoin: miter; stroke-miterlimit: 10; fill: none; fill-rule: nonzero; opacity: 1;" transform="translate(1.4065934065934016 1.4065934065934016) scale(2.81 2.81)">
	<path d="M 58.858 47.347 c 0.77 -1.765 1.203 -3.711 1.203 -5.76 c 0 -7.972 -9.337 -11.195 -14.434 -16.962 c -5.097 5.768 -14.434 8.991 -14.434 16.962 c 0 2.049 0.433 3.995 1.203 5.76 H 58.858 z" style="stroke: none; stroke-width: 1; stroke-dasharray: none; stroke-linecap: butt; stroke-linejoin: miter; stroke-miterlimit: 10; fill: rgb(33,143,118); fill-rule: nonzero; opacity: 1;" transform=" matrix(1 0 0 1 0 0) " stroke-linecap="round"/>
	<rect x="32.4" y="47.35" rx="0" ry="0" width="26.46" height="33.52" style="stroke: none; stroke-width: 1; stroke-dasharray: none; stroke-linecap: butt; stroke-linejoin: miter; stroke-miterlimit: 10; fill: rgb(46,191,158); fill-rule: nonzero; opacity: 1;" transform=" matrix(1 0 0 1 0 0) "/>
	<path d="M 45.628 56.518 L 45.628 56.518 c -2.786 0 -5.044 2.258 -5.044 5.044 V 73.71 h 10.088 V 61.562 C 50.672 58.777 48.414 56.518 45.628 56.518 z" style="stroke: none; stroke-width: 1; stroke-dasharray: none; stroke-linecap: butt; stroke-linejoin: miter; stroke-miterlimit: 10; fill: rgb(33,143,118); fill-rule: nonzero; opacity: 1;" transform=" matrix(1 0 0 1 0 0) " stroke-linecap="round"/>
	<path d="M 77.182 27.003 c 0.295 -0.676 0.461 -1.421 0.461 -2.205 c 0 -3.052 -3.574 -4.286 -5.526 -6.494 c -1.951 2.208 -5.526 3.442 -5.526 6.494 c 0 0.784 0.166 1.529 0.461 2.205 H 77.182 z" style="stroke: none; stroke-width: 1; stroke-dasharray: none; stroke-linecap: butt; stroke-linejoin: miter; stroke-miterlimit: 10; fill: rgb(33,143,118); fill-rule: nonzero; opacity: 1;" transform=" matrix(1 0 0 1 0 0) " stroke-linecap="round"/>
	<polygon points="77.18,70.69 77.18,27 67.05,27 67.05,78.87 " style="stroke: none; stroke-width: 1; stroke-dasharray: none; stroke-linecap: butt; stroke-linejoin: miter; stroke-miterlimit: 10; fill: rgb(46,191,158); fill-rule: nonzero; opacity: 1;" transform="  matrix(1 0 0 1 0 0) "/>
	<path d="M 45.487 16.93 c -1.163 0.798 -1.783 1.919 -1.899 3 c -0.125 1.094 0.282 2.121 0.986 2.835 c 0.716 0.701 1.742 1.109 2.835 0.983 c 1.08 -0.117 2.201 -0.734 3.001 -1.896 c 0.024 1.429 -1.076 2.906 -2.627 3.412 c -1.532 0.56 -3.432 0.133 -4.622 -1.084 c -1.214 -1.192 -1.643 -3.091 -1.081 -4.622 C 42.585 18.008 44.059 16.909 45.487 16.93 z" style="stroke: none; stroke-width: 1; stroke-dasharray: none; stroke-linecap: butt; stroke-linejoin: miter; stroke-miterlimit: 10; fill: rgb(46,191,158); fill-rule: nonzero; opacity: 1;" transform=" matrix(1 0 0 1 0 0) " stroke-linecap="round"/>
	<path d="M 71.452 13.317 c -0.736 0.445 -1.17 1.138 -1.265 1.834 c -0.097 0.699 0.14 1.396 0.616 1.861 c 0.466 0.474 1.162 0.712 1.86 0.614 c 0.696 -0.095 1.388 -0.528 1.835 -1.263 c -0.034 0.868 -0.716 1.731 -1.648 2.021 c -0.925 0.327 -2.04 0.047 -2.754 -0.665 c -0.711 -0.715 -0.991 -1.829 -0.664 -2.753 C 69.723 14.034 70.585 13.353 71.452 13.317 z" style="stroke: none; stroke-width: 1; stroke-dasharray: none; stroke-linecap: butt; stroke-linejoin: miter; stroke-miterlimit: 10; fill: rgb(46,191,158); fill-rule: nonzero; opacity: 1;" transform=" matrix(1 0 0 1 0 0) " stroke-linecap="round"/>
	<path d="M 84.351 61.42 c -15.401 15.401 -40.37 15.401 -55.771 0 s -15.401 -40.371 0 -55.771 C 30.781 3.448 33.183 1.572 35.719 0 c -8.201 1.803 -16.003 5.881 -22.381 12.259 c -17.784 17.784 -17.784 46.618 0 64.403 c 17.784 17.784 46.618 17.784 64.403 0 C 84.119 70.284 88.197 62.482 90 54.281 C 88.428 56.817 86.553 59.219 84.351 61.42 z" style="stroke: none; stroke-width: 1; stroke-dasharray: none; stroke-linecap: butt; stroke-linejoin: miter; stroke-miterlimit: 10; fill: rgb(243,218,48); fill-rule: nonzero; opacity: 1;" transform=" matrix(1 0 0 1 0 0) " stroke-linecap="round"/>
</g>
</svg>